<svg width="24" height="25" viewBox="0 0 24 25" fill="none" xmlns="http://www.w3.org/2000/svg">
<path d="M17.5533 17.2498C16.1468 15.8435 14.2392 15.0534 12.2503 15.0534C10.2613 15.0534 8.35376 15.8435 6.94727 17.2498M18.0003 4.30383C16.6222 3.50822 14.9845 3.29261 13.4475 3.70444C11.9104 4.11627 10.5999 5.1218 9.80427 6.49984L20.1963 12.4998C20.9919 11.1218 21.2075 9.48408 20.7957 7.94704C20.3838 6.41 19.3783 5.09951 18.0003 4.30383Z" stroke="#172E44" stroke-width="2" stroke-linecap="round" stroke-linejoin="round"/>
<path d="M16.732 10.5003C18.39 7.63027 18.957 4.85627 18 4.30427C17.043 3.75227 14.925 5.63027 13.268 8.50027M15 9.50027L12 14.6963M3 19.7503C3.31129 19.5955 3.65249 19.5102 4 19.5003C4.3895 19.4921 4.77512 19.5789 5.12358 19.7531C5.47203 19.9273 5.77283 20.1838 6 20.5003C6.22717 20.8168 6.52797 21.0732 6.87642 21.2474C7.22488 21.4217 7.6105 21.5084 8 21.5003C8.3895 21.5084 8.77512 21.4217 9.12358 21.2474C9.47203 21.0732 9.77283 20.8168 10 20.5003C10.2272 20.1838 10.528 19.9273 10.8764 19.7531C11.2249 19.5789 11.6105 19.4921 12 19.5003C12.3895 19.4921 12.7751 19.5789 13.1236 19.7531C13.472 19.9273 13.7728 20.1838 14 20.5003C14.2272 20.8168 14.528 21.0732 14.8764 21.2474C15.2249 21.4217 15.6105 21.5084 16 21.5003C16.3895 21.5084 16.7751 21.4217 17.1236 21.2474C17.472 21.0732 17.7728 20.8168 18 20.5003C18.2272 20.1838 18.528 19.9273 18.8764 19.7531C19.2249 19.5789 19.6105 19.4921 20 19.5003C20.3475 19.5102 20.6887 19.5955 21 19.7503" stroke="#172E44" stroke-width="2" stroke-linecap="round" stroke-linejoin="round"/>
</svg>
