<svg width="24" height="25" viewBox="0 0 24 25" fill="none" xmlns="http://www.w3.org/2000/svg">
<path d="M10 10.5C10 11.0304 10.2107 11.5391 10.5858 11.9142C10.9609 12.2893 11.4696 12.5 12 12.5C12.5304 12.5 13.0391 12.2893 13.4142 11.9142C13.7893 11.5391 14 11.0304 14 10.5C14 9.96957 13.7893 9.46086 13.4142 9.08579C13.0391 8.71071 12.5304 8.5 12 8.5C11.4696 8.5 10.9609 8.71071 10.5858 9.08579C10.2107 9.46086 10 9.96957 10 10.5Z" stroke="#172E44" stroke-width="2" stroke-linecap="round" stroke-linejoin="round"/>
<path d="M10 14.5C10 15.0304 10.2107 15.5391 10.5858 15.9142C10.9609 16.2893 11.4696 16.5 12 16.5C12.5304 16.5 13.0391 16.2893 13.4142 15.9142C13.7893 15.5391 14 15.0304 14 14.5C14 13.9696 13.7893 13.4609 13.4142 13.0858C13.0391 12.7107 12.5304 12.5 12 12.5C11.4696 12.5 10.9609 12.7107 10.5858 13.0858C10.2107 13.4609 10 13.9696 10 14.5Z" stroke="#172E44" stroke-width="2" stroke-linecap="round" stroke-linejoin="round"/>
<path d="M4 12.5C4 14.6217 4.84285 16.6566 6.34315 18.1569C7.84344 19.6571 9.87827 20.5 12 20.5C14.1217 20.5 16.1566 19.6571 17.6569 18.1569C19.1571 16.6566 20 14.6217 20 12.5C20 10.3783 19.1571 8.34344 17.6569 6.84315C16.1566 5.34285 14.1217 4.5 12 4.5C9.87827 4.5 7.84344 5.34285 6.34315 6.84315C4.84285 8.34344 4 10.3783 4 12.5Z" stroke="#172E44" stroke-width="2" stroke-linecap="round" stroke-linejoin="round"/>
</svg>
