<svg width="24" height="25" viewBox="0 0 24 25" fill="none" xmlns="http://www.w3.org/2000/svg">
<path d="M6 12.5C6 14.0913 6.63214 15.6174 7.75736 16.7426C8.88258 17.8679 10.4087 18.5 12 18.5C13.5913 18.5 15.1174 17.8679 16.2426 16.7426C17.3679 15.6174 18 14.0913 18 12.5C18 10.9087 17.3679 9.38258 16.2426 8.25736C15.1174 7.13214 13.5913 6.5 12 6.5C10.4087 6.5 8.88258 7.13214 7.75736 8.25736C6.63214 9.38258 6 10.9087 6 12.5Z" stroke="#172E44" stroke-width="2" stroke-linecap="round" stroke-linejoin="round"/>
<path d="M8 22.5L12 12.5L16 22.5M3 8.5C3 9.03043 3.21071 9.53914 3.58579 9.91421C3.96086 10.2893 4.46957 10.5 5 10.5C5.53043 10.5 6.03914 10.2893 6.41421 9.91421C6.78929 9.53914 7 9.03043 7 8.5C7 7.96957 6.78929 7.46086 6.41421 7.08579C6.03914 6.71071 5.53043 6.5 5 6.5C4.46957 6.5 3.96086 6.71071 3.58579 7.08579C3.21071 7.46086 3 7.96957 3 8.5ZM10 4.5C10 5.03043 10.2107 5.53914 10.5858 5.91421C10.9609 6.28929 11.4696 6.5 12 6.5C12.5304 6.5 13.0391 6.28929 13.4142 5.91421C13.7893 5.53914 14 5.03043 14 4.5C14 3.96957 13.7893 3.46086 13.4142 3.08579C13.0391 2.71071 12.5304 2.5 12 2.5C11.4696 2.5 10.9609 2.71071 10.5858 3.08579C10.2107 3.46086 10 3.96957 10 4.5ZM17 8.5C17 9.03043 17.2107 9.53914 17.5858 9.91421C17.9609 10.2893 18.4696 10.5 19 10.5C19.5304 10.5 20.0391 10.2893 20.4142 9.91421C20.7893 9.53914 21 9.03043 21 8.5C21 7.96957 20.7893 7.46086 20.4142 7.08579C20.0391 6.71071 19.5304 6.5 19 6.5C18.4696 6.5 17.9609 6.71071 17.5858 7.08579C17.2107 7.46086 17 7.96957 17 8.5ZM3 16.5C3 17.0304 3.21071 17.5391 3.58579 17.9142C3.96086 18.2893 4.46957 18.5 5 18.5C5.53043 18.5 6.03914 18.2893 6.41421 17.9142C6.78929 17.5391 7 17.0304 7 16.5C7 15.9696 6.78929 15.4609 6.41421 15.0858C6.03914 14.7107 5.53043 14.5 5 14.5C4.46957 14.5 3.96086 14.7107 3.58579 15.0858C3.21071 15.4609 3 15.9696 3 16.5ZM17 16.5C17 17.0304 17.2107 17.5391 17.5858 17.9142C17.9609 18.2893 18.4696 18.5 19 18.5C19.5304 18.5 20.0391 18.2893 20.4142 17.9142C20.7893 17.5391 21 17.0304 21 16.5C21 15.9696 20.7893 15.4609 20.4142 15.0858C20.0391 14.7107 19.5304 14.5 19 14.5C18.4696 14.5 17.9609 14.7107 17.5858 15.0858C17.2107 15.4609 17 15.9696 17 16.5Z" stroke="#172E44" stroke-width="2" stroke-linecap="round" stroke-linejoin="round"/>
</svg>
