<svg width="24" height="25" viewBox="0 0 24 25" fill="none" xmlns="http://www.w3.org/2000/svg">
<path d="M8.30827 2.0938C9.98747 2.02574 11.1947 2.66597 12.4255 3.75761C15.848 2.97111 19.6026 5.13239 20.3208 8.64623C20.4711 9.38127 20.4966 10.414 21.0173 11.0196C21.0816 11.0944 21.1957 11.1241 21.2712 11.187C21.6099 11.4694 21.5465 11.9715 21.2926 12.2846C20.6503 13.0767 19.3833 12.8901 18.5391 12.5691C18.2628 12.4641 18.0306 12.3045 17.7671 12.178C17.5522 12.0747 16.4171 11.7809 16.1667 11.8373C16.0419 12.0119 15.9477 12.2105 15.8327 12.3923C15.1567 13.461 13.6696 14.8391 12.3272 14.6865C11.9503 14.6436 11.6956 14.3161 11.7466 13.9409C11.784 13.6662 11.9159 13.5917 12.116 13.4345C12.465 13.1601 12.6802 12.2806 12.7319 11.8373C10.2061 12.0599 8.37947 13.9144 7.87758 16.3212C7.8473 16.4662 7.83933 16.6091 7.79199 16.7509C7.81289 17.0377 7.79372 17.4448 7.79199 17.7455C8.92514 18.0598 9.94453 18.9635 10.462 20.008C10.6535 20.3945 10.8813 21.1136 10.7357 21.5334C10.5729 22.0029 10.0019 22.2131 9.58749 21.9159C9.46322 21.8268 9.35728 21.7124 9.23396 21.6209C8.51944 21.091 7.55677 21.3631 6.65236 21.0421C5.81377 21.6125 4.63939 21.3791 3.91233 22.1941C3.77837 22.3443 3.69016 22.5191 3.50457 22.6164C3.16369 22.7952 2.71818 22.6455 2.54584 22.3067C2.33455 21.8914 2.49371 21.022 2.63229 20.5904C2.98811 19.4819 3.75402 18.5091 4.79864 17.9769C3.69523 13.7139 4.50079 8.65612 8.04399 5.74007C7.99735 5.55857 7.97963 5.37674 7.90711 5.20162C7.39617 3.96788 6.28646 4.48916 5.89017 4.18758C5.55005 3.92878 5.52286 3.38606 5.7818 3.06206C6.17878 2.56536 7.71263 2.15691 8.30827 2.0938ZM4.34754 20.2556C4.4368 20.2327 4.52578 20.2101 4.6136 20.182C4.94569 20.0986 5.29463 20.0522 5.61464 19.9282C5.86172 19.8324 6.06638 19.6267 6.32785 19.5714C6.68972 19.4948 7.14267 19.7492 7.51046 19.8039C7.92146 19.8651 8.28703 19.8311 8.73239 19.9145C8.1548 19.3006 6.85074 18.9483 6.64936 18.6184C6.44944 18.2909 6.40252 17.3346 6.41447 16.94C6.53339 13.0099 9.70421 10.2452 13.5615 10.377C14.2641 10.401 14.104 11.8418 14.1263 12.2967C14.3909 11.8604 14.6377 11.627 14.8863 11.1271C15.2021 10.492 15.2843 10.4303 15.9629 10.4593C16.7531 10.493 17.5877 10.6092 18.3284 10.8975C18.7733 11.0708 19.175 11.3176 19.6364 11.449C19.4395 11.0297 19.2656 10.8019 19.1364 10.3127C18.9981 9.78881 19.0022 9.24131 18.8627 8.71673C18.214 6.27749 16.1031 5.02834 13.6946 5.08817C10.9451 5.18029 8.62828 6.67973 7.17516 8.9519C7.02469 9.18721 6.8678 9.43612 6.76519 9.6966C6.99933 9.42796 7.21913 9.15163 7.47291 8.89977C9.18399 7.20182 11.9902 6.36168 14.1695 7.65637C14.267 7.71435 14.6664 7.92749 14.6651 8.06029L14.6484 8.07496C14.2469 8.03493 13.8051 7.87298 13.3572 7.82657C9.30455 7.40713 6.30371 10.9166 5.92758 14.7146C5.83857 15.6139 5.92566 16.5305 6.10463 17.4139C6.327 18.5114 6.65672 18.5654 5.51981 19.1698C5.00372 19.4441 4.69674 19.7993 4.34754 20.2556ZM10.2097 4.42149C10.3753 4.35675 10.5458 4.29588 10.7064 4.21933C9.99792 3.73992 9.31847 3.51182 8.4533 3.55787C8.48086 3.64403 8.72935 3.84903 8.80317 3.93421C9.03947 4.20684 9.17485 4.55193 9.28861 4.88927C9.58983 4.72253 9.89405 4.55948 10.2097 4.42149Z" fill="#172E44"/>
<path d="M17.8193 8.08988C17.8322 8.08763 17.8451 8.0858 17.8582 8.0844C17.8712 8.08302 17.8843 8.08207 17.8974 8.08154C17.9105 8.08101 17.9236 8.08091 17.9368 8.08126C17.9499 8.0816 17.9629 8.08238 17.976 8.0836C17.9891 8.08479 18.0021 8.08641 18.015 8.08848C18.028 8.09054 18.0408 8.09304 18.0536 8.09598C18.0664 8.09888 18.0791 8.10221 18.0917 8.10596C18.1043 8.10971 18.1167 8.11388 18.129 8.11848C18.1413 8.12304 18.1534 8.12801 18.1654 8.13338C18.1773 8.13876 18.1891 8.14452 18.2007 8.15068C18.2123 8.15683 18.2236 8.16337 18.2348 8.17027C18.2459 8.17718 18.2568 8.18444 18.2675 8.19207C18.2782 8.19973 18.2886 8.20771 18.2987 8.21602C18.3089 8.22434 18.3187 8.23298 18.3283 8.24194C18.3379 8.25091 18.3471 8.26019 18.3561 8.26979C18.365 8.27935 18.3737 8.28921 18.382 8.29937C18.3903 8.30952 18.3983 8.31994 18.4059 8.33063C18.4135 8.34129 18.4207 8.35219 18.4276 8.36335C18.4345 8.37451 18.4411 8.38588 18.4472 8.39748C18.4533 8.40907 18.4591 8.42085 18.4645 8.43282C18.4698 8.44479 18.4748 8.45693 18.4793 8.46924C18.4839 8.48152 18.4881 8.49396 18.4918 8.50655C18.4956 8.51912 18.4989 8.53179 18.5018 8.54457C18.5047 8.55738 18.5072 8.57026 18.5092 8.58319C18.5113 8.59616 18.5129 8.60918 18.5141 8.62224C18.5153 8.6353 18.516 8.6484 18.5164 8.66152C18.5167 8.67462 18.5166 8.68773 18.516 8.70085C18.5155 8.71394 18.5145 8.72701 18.5131 8.74004C18.5117 8.7531 18.5099 8.76609 18.5076 8.77899C18.5053 8.79193 18.5026 8.80477 18.4995 8.81752C18.4964 8.83024 18.4929 8.84287 18.489 8.8554C18.485 8.8679 18.4806 8.88026 18.4759 8.89248C18.4711 8.90469 18.466 8.91674 18.4604 8.92862C18.4548 8.94049 18.4489 8.95218 18.4425 8.96368C18.4362 8.97515 18.4295 8.98641 18.4224 8.99748C18.4153 9.00851 18.4079 9.0193 18.4001 9.02987C18.3923 9.0404 18.3842 9.05068 18.3757 9.06071C18.3672 9.07071 18.3584 9.08043 18.3493 9.08987C18.3402 9.0993 18.3308 9.10843 18.321 9.11724C18.3113 9.12605 18.3013 9.13452 18.2911 9.14265C18.2808 9.1508 18.2703 9.1586 18.2595 9.16604C18.2487 9.17351 18.2376 9.1806 18.2264 9.18732C18.2151 9.19404 18.2036 9.20038 18.192 9.20635C18.1803 9.21232 18.1684 9.21788 18.1563 9.22304C18.1443 9.22823 18.1321 9.23301 18.1197 9.23738C18.1073 9.24176 18.0948 9.24571 18.0822 9.24924C18.0696 9.2528 18.0569 9.25593 18.044 9.25862C18.0312 9.26133 18.0183 9.26362 18.0053 9.26546C17.9957 9.26684 17.9862 9.26796 17.9766 9.26884C17.967 9.26974 17.9574 9.2704 17.9477 9.2708C17.9381 9.27124 17.9284 9.27144 17.9188 9.27141C17.9092 9.27138 17.8995 9.2711 17.8899 9.27057C17.8803 9.27007 17.8707 9.26934 17.8611 9.26837C17.8514 9.26737 17.8419 9.26615 17.8323 9.26471C17.8228 9.26327 17.8133 9.2616 17.8039 9.25969C17.7944 9.25779 17.785 9.25566 17.7757 9.25332C17.7663 9.25094 17.757 9.24835 17.7478 9.24554C17.7385 9.24273 17.7294 9.23969 17.7203 9.23644C17.7113 9.23319 17.7022 9.22971 17.6933 9.22599C17.6844 9.2223 17.6756 9.2184 17.6669 9.21427C17.6582 9.21015 17.6496 9.20582 17.6411 9.20129C17.6325 9.19676 17.6242 9.19201 17.6159 9.18704C17.6076 9.1821 17.5995 9.17696 17.5914 9.17162C17.5834 9.16627 17.5755 9.16073 17.5678 9.15498C17.56 9.14926 17.5524 9.14335 17.5449 9.13726C17.5374 9.13116 17.5301 9.12488 17.523 9.11841C17.5158 9.11194 17.5088 9.10532 17.502 9.09854C17.4951 9.09173 17.4884 9.08477 17.4819 9.07768C17.4754 9.07055 17.4691 9.06327 17.463 9.05584C17.4568 9.0484 17.4508 9.04082 17.445 9.0331C17.4393 9.02538 17.4337 9.01754 17.4283 9.00957C17.4229 9.00157 17.4177 8.99344 17.4127 8.98519C17.4076 8.97694 17.4028 8.96859 17.3982 8.96012C17.3936 8.95165 17.3892 8.94307 17.385 8.93438C17.3809 8.92569 17.3769 8.9169 17.3731 8.90799C17.3694 8.89912 17.3659 8.89015 17.3625 8.88108C17.3592 8.87205 17.3561 8.86293 17.3532 8.85371C17.3503 8.84449 17.3477 8.83523 17.3453 8.82591C17.3429 8.81657 17.3407 8.80718 17.3387 8.79774C17.3367 8.7883 17.335 8.77882 17.3335 8.76929C17.332 8.75976 17.3307 8.75019 17.3296 8.7406C17.3286 8.73104 17.3278 8.72143 17.3272 8.71177C17.3267 8.70215 17.3263 8.69252 17.3262 8.6829C17.3261 8.67324 17.3262 8.6636 17.3266 8.65398C17.3269 8.64432 17.3275 8.63469 17.3284 8.6251C17.3292 8.61548 17.3303 8.60588 17.3316 8.59632C17.3328 8.58679 17.3344 8.57727 17.3361 8.56777C17.3379 8.5583 17.3399 8.54887 17.3421 8.53946C17.3443 8.53009 17.3468 8.52076 17.3494 8.51148C17.3521 8.50223 17.355 8.49304 17.3581 8.48391C17.3612 8.47479 17.3646 8.46574 17.3681 8.45677C17.3717 8.4478 17.3755 8.43893 17.3794 8.43015C17.3834 8.42137 17.3876 8.41268 17.392 8.40409C17.3964 8.39552 17.401 8.38705 17.4059 8.37868C17.4107 8.37034 17.4157 8.36212 17.421 8.35402C17.4262 8.3459 17.4316 8.33791 17.4372 8.33007C17.4428 8.32223 17.4486 8.31452 17.4546 8.30696C17.4606 8.2994 17.4667 8.29198 17.4731 8.28469C17.4794 8.27744 17.4859 8.27035 17.4926 8.26341C17.4993 8.25644 17.5062 8.24966 17.5132 8.24307C17.5202 8.23644 17.5274 8.23001 17.5347 8.22376C17.5421 8.21748 17.5495 8.21138 17.5572 8.20548C17.5648 8.19957 17.5726 8.19387 17.5805 8.18837C17.5884 8.18283 17.5964 8.17751 17.6046 8.17238C17.6127 8.16723 17.621 8.16229 17.6294 8.15757C17.6378 8.15285 17.6463 8.14832 17.655 8.14398C17.6636 8.13966 17.6723 8.13557 17.6812 8.13169C17.69 8.12779 17.6989 8.1241 17.7079 8.12063C17.7169 8.11719 17.726 8.11396 17.7352 8.11093C17.7443 8.10793 17.7535 8.10513 17.7628 8.10254C17.7721 8.09998 17.7815 8.09765 17.7909 8.09555C17.8003 8.09343 17.8098 8.09154 17.8193 8.08988Z" fill="#172E44"/>
</svg>
