<svg width="180" height="180" viewBox="0 0 180 180" fill="none" xmlns="http://www.w3.org/2000/svg">
<path d="M130.448 69.8227V111.331C130.448 129.395 115.738 144 97.5434 144H83.9946C65.8004 144 50.7031 129.395 50.7031 111.331V69.8227C50.7031 60.5985 54.5742 52.5274 60.3809 46.378C60.768 45.9937 61.5422 45.6093 61.9293 44.8406C67.736 39.8442 75.4781 36.7695 83.6075 36.7695H96.7692C105.673 36.7695 113.802 40.2286 119.996 46.378C120.383 46.7623 121.157 47.531 121.544 47.9154C127.351 53.6805 130.448 61.3672 130.448 69.8227Z" stroke="white" stroke-width="1.86804" stroke-miterlimit="10"/>
<path d="M0 88.6534C0 87.8847 0.387098 87.116 0.774208 86.7317C1.16132 86.3474 1.93554 85.5787 2.70976 85.5787C3.48398 85.1944 4.25819 85.1943 5.03241 85.1943C5.80663 85.1943 6.58084 85.1944 7.35506 85.5787C8.12928 85.963 8.5164 86.3474 8.90351 86.7317C9.29062 87.116 9.29061 87.8847 9.29061 88.2691C9.29061 88.6534 9.29062 89.0377 8.90351 89.8064C8.5164 90.1908 8.1293 90.5751 7.74219 90.9594C7.35508 91.3438 6.58084 91.7281 5.41951 92.4968L2.32265 94.0341V93.2655H9.67774V95.1872H0V93.6498L4.2582 90.9594C5.03242 90.5751 5.41954 90.1908 5.80665 89.8064C6.19376 89.4221 6.58085 89.4221 6.58085 89.0377C6.58085 88.6534 6.96796 88.6534 6.96796 88.2691C6.96796 87.8847 6.96796 87.5004 6.58085 87.5004C6.58085 87.1161 6.19376 87.116 5.80665 87.116C5.41954 87.116 5.03241 86.7317 4.6453 86.7317C3.87109 86.7317 3.48397 86.7317 3.09686 87.116C2.70975 87.116 2.32265 87.5004 2.32265 87.8847C2.32265 88.2691 1.93555 88.6534 1.93555 89.0377H0V88.6534Z" fill="white"/>
<path d="M17.8082 95.1863C16.6469 95.1863 15.8726 94.802 15.0984 94.4176C14.3242 94.0333 13.55 93.2646 13.1629 92.4959C12.7758 91.7272 12.3887 90.9586 12.3887 89.8056C12.3887 88.6525 12.7758 87.8838 13.1629 87.1152C13.55 86.3465 14.3242 85.5778 15.0984 85.1935C15.8726 84.8091 17.034 84.4248 17.8082 84.4248C18.9695 84.4248 19.7437 84.8091 20.9051 85.1935C21.6793 85.5778 22.4535 86.3465 22.8406 87.1152C23.2277 87.8838 23.6149 88.6525 23.6149 89.8056C23.6149 90.9586 23.2277 91.7272 22.8406 92.4959C22.4535 93.2646 21.6793 94.0333 20.9051 94.4176C19.7437 94.802 18.9695 95.1863 17.8082 95.1863ZM17.8082 93.2646C18.9695 93.2646 19.7438 92.8803 20.1309 92.4959C20.518 91.7272 20.9051 90.9586 20.9051 90.1899C20.9051 89.0369 20.518 88.2682 20.1309 87.8839C19.7438 87.1152 18.9695 87.1152 17.8082 87.1152C16.6469 87.1152 15.8727 87.4995 15.4856 87.8839C15.0985 88.6525 14.7113 89.4212 14.7113 90.1899C14.7113 91.3429 15.0985 92.1116 15.4856 92.4959C15.8727 92.8803 16.6469 93.2646 17.8082 93.2646Z" fill="white"/>
<path d="M158.324 87.5001C158.324 86.7314 158.711 85.9627 159.098 85.5784C159.486 85.194 160.26 84.4253 161.034 84.4253C161.808 84.041 162.582 84.041 163.357 84.041C164.131 84.041 164.905 84.041 165.679 84.4253C166.454 84.8097 166.841 85.194 167.228 85.5784C167.615 85.9627 167.615 86.7314 167.615 87.1157C167.615 87.5 167.615 87.8844 167.228 88.6531C166.841 89.0374 166.454 89.4218 166.066 89.8061C165.679 90.1904 164.905 90.5748 163.744 91.3435L160.647 92.8808V92.1121H168.002V94.0338H158.324V92.4965L162.582 89.8061C163.357 89.4218 163.744 89.0374 164.131 88.6531C164.518 88.2687 164.905 88.2687 164.905 87.8844C164.905 87.5001 165.292 87.5 165.292 87.1157C165.292 86.7314 165.292 86.347 164.905 86.347C164.905 85.9627 164.518 85.9627 164.131 85.9627C163.744 85.9627 163.357 85.5784 162.97 85.5784C162.195 85.5784 161.808 85.5784 161.421 85.9627C161.034 85.9627 160.647 86.347 160.647 86.7314C160.647 87.1157 160.26 87.5001 160.26 87.8844H158.324V87.5001Z" fill="white"/>
<path d="M171.875 84.041H179.617V85.5784H172.649L173.423 85.194L173.036 89.0374H172.262C172.649 88.6531 172.649 88.2687 173.036 88.2687C173.423 88.2687 173.81 87.8844 174.197 87.5001C174.584 87.5001 175.359 87.1157 175.746 87.1157C176.52 87.1157 177.294 87.1157 178.068 87.5001C178.843 87.8844 179.23 88.2687 179.617 88.6531C180.004 89.0374 180.004 89.8061 180.004 90.1904C180.004 90.9591 180.004 91.3434 179.617 92.1121C179.23 92.4965 178.843 92.8808 178.068 93.2652C177.294 93.6495 176.52 93.6495 175.359 93.6495C174.584 93.6495 173.423 93.6495 172.649 93.2652C171.875 92.8808 171.487 92.4965 171.1 92.1121C170.713 91.7278 170.326 90.9591 170.326 90.5748H172.649C172.649 90.9591 173.036 91.3435 173.423 91.7278C173.81 92.1121 174.584 92.1121 175.359 92.1121C175.746 92.1121 176.133 92.1121 176.52 91.7278C176.907 91.3435 177.294 91.3434 177.294 90.9591C177.294 90.5748 177.681 90.5748 177.681 90.1904C177.681 89.8061 177.681 89.4218 177.294 89.4218C176.907 89.4218 176.907 89.0374 176.52 88.6531C176.133 88.6531 175.746 88.2687 175.359 88.2687C174.972 88.2687 174.584 88.2687 174.197 88.2687C173.81 88.2687 173.423 88.6531 173.423 88.6531C173.423 88.6531 173.036 89.0374 172.649 89.0374H170.713L171.875 84.041Z" fill="white"/>
<path d="M51.4824 96.7242C52.6438 94.4181 55.3535 90.9591 59.6117 88.6531C61.1601 87.8844 62.7086 87.5 64.257 87.1157C65.0312 86.7314 65.8055 86.7314 66.9668 86.7314C71.6121 86.347 76.6445 87.5 81.2899 89.0374C82.0641 89.4217 83.2254 89.8061 83.9996 89.8061C90.5805 92.1121 97.1614 95.1868 103.742 96.3398C104.516 96.7242 105.291 96.7242 106.452 96.7242C111.097 97.4929 115.355 97.1085 119.614 95.1869C122.711 93.6495 126.969 90.9591 130.453 84.041" stroke="white" stroke-width="1.86804" stroke-miterlimit="10" stroke-linecap="round"/>
<path d="M130.452 99.415C126.968 105.564 122.71 108.255 119.613 109.792C100.645 118.248 77.8055 94.803 59.9985 103.643C55.7403 105.564 53.4176 109.024 51.8691 110.945" stroke="white" stroke-width="1.86804" stroke-miterlimit="10" stroke-linecap="round"/>
<path d="M130.071 114.019C126.587 119.399 122.329 122.09 119.619 123.243C101.425 130.545 78.9723 109.791 61.9395 117.862C58.0684 119.784 55.3586 122.474 54.1973 124.396" stroke="white" stroke-width="1.86804" stroke-miterlimit="10" stroke-linecap="round"/>
<path d="M66.5727 86.733C65.7985 86.733 64.6372 87.1173 63.8629 87.1173L50.7012 76.7402V74.0498L66.5727 86.733Z" fill="white"/>
<path d="M83.9957 90.1932C83.2215 89.8089 82.0602 89.4246 81.2859 89.4246L61.1562 46.7629C61.5434 46.3786 62.3176 45.9943 62.7047 45.2256L83.9957 90.1932Z" fill="white"/>
<path d="M91.3507 93.2665C90.9636 93.2665 90.1895 92.8822 90.1895 92.1135L90.5765 37.153C90.5765 36.7687 90.9636 36 91.7379 36C92.125 36 92.8992 36.3843 92.8992 37.153L92.5121 92.1135C92.125 92.8822 91.7378 93.2665 91.3507 93.2665Z" fill="white"/>
<path d="M121.931 47.9153L98.7049 95.189C98.7049 95.5733 98.3178 95.9577 97.9307 95.9577H97.5436C97.1565 95.5733 96.7693 95.189 97.1564 94.4203L120.77 46.3779C120.77 46.7623 121.544 47.531 121.931 47.9153Z" fill="white"/>
<path d="M130.451 75.9727V78.663L106.45 97.1113C105.676 97.1113 104.514 96.7269 103.74 96.7269L130.451 75.9727Z" fill="white"/>
</svg>
