<svg width="24" height="25" viewBox="0 0 24 25" fill="none" xmlns="http://www.w3.org/2000/svg">
<path d="M11.2298 2.06093C11.6765 2.03054 11.8235 2.16318 12.1742 2.40926C14.9267 4.3404 16.7707 7.20503 16.7462 10.66C17.1816 10.2637 17.8189 9.32214 18.3995 9.31999C19.0287 9.31764 19.2207 9.95022 19.4308 10.427C20.2853 12.3654 20.8466 15.0442 20.5399 17.1867C20.1102 20.1881 17.7384 22.5399 14.6851 22.7876C14.3723 22.813 14.0524 22.8003 13.7386 22.8003L12.1553 22.8L10.3501 22.8004C9.953 22.8004 9.55259 22.8147 9.15706 22.7753C7.37009 22.597 5.69909 21.5956 4.64849 20.1489C3.52075 18.5959 3.31567 17.1091 3.43408 15.2773C3.52437 13.8807 3.76011 12.4355 4.23924 11.1167C4.37685 10.738 5.4433 8.27988 5.66759 8.04569C6.01447 7.68349 6.54617 7.67486 6.90406 8.02783C7.19366 8.31349 7.15391 8.63936 7.15311 9.01558L7.15212 9.7406C7.51175 9.53927 7.84559 9.24091 8.15487 8.97035C9.872 7.46814 10.6323 5.52658 10.5671 3.27875C10.5498 2.68302 10.5514 2.24944 11.2298 2.06093ZM5.76266 11.7671C5.31102 13.9567 4.56021 16.8683 5.87567 18.865C6.47825 19.7797 7.40455 20.5251 8.47011 20.8196C7.09902 18.6106 7.7772 15.9978 9.35623 14.0834C9.5892 13.8009 9.59019 13.7474 9.70489 13.3965C10.0385 12.3756 10.8436 11.3479 11.7709 10.78C12.4664 10.354 13.2421 10.9633 13.0984 11.7671C12.4732 14.4103 15.2459 15.1876 16.0771 17.2403C16.4942 18.2703 16.2693 19.4545 15.7448 20.403C15.6591 20.558 15.557 20.7038 15.476 20.8614C16.8203 20.386 17.7507 19.7051 18.3938 18.361C19.2366 16.5994 18.8054 13.6042 18.0777 11.8876C17.5961 12.3908 17.0508 12.8139 16.5119 13.2529C16.1755 13.527 15.8811 13.8661 15.419 13.8783C14.9324 13.8912 14.4706 13.5434 14.4622 13.0368C14.4568 12.716 14.6498 12.4053 14.7399 12.1016C15.5138 9.49183 14.3933 6.72185 12.5094 4.87063C12.4279 4.79053 12.3372 4.69416 12.236 4.64008C12.2281 5.00942 12.1444 5.38535 12.0593 5.74338C11.4391 8.35497 9.66003 10.3302 7.38027 11.6401C6.8172 11.9636 6.40686 12.2039 5.76266 11.7671ZM9.74994 16.7688C9.30734 17.9724 9.25489 19.1897 10.204 20.1379C11.8812 21.7022 14.6518 20.4753 14.5537 18.3405C14.51 17.3884 13.6864 16.831 13.0629 16.2254C12.5206 15.6986 12.0174 15.0869 11.6888 14.4012C11.6482 14.3166 11.4475 13.7736 11.423 13.7502C10.9099 14.5842 11.0928 15.8261 11.7003 16.5702C12.0176 16.9587 12.4394 17.0787 12.4452 17.6567C12.4521 18.3541 11.6506 18.7807 11.0553 18.4078C10.525 18.0756 10.0326 17.3024 9.74994 16.7688Z" fill="#172E44"/>
</svg>
