<svg width="101" height="101" viewBox="0 0 101 101" fill="none" xmlns="http://www.w3.org/2000/svg">
<g clip-path="url(#clip0_247_46)">
<path d="M50.5047 0.5C36.9254 0.5 35.2212 0.559358 29.8878 0.802082C24.5648 1.04582 20.9315 1.88854 17.7522 3.12505C14.4637 4.4021 11.6741 6.11042 8.89488 8.89061C6.11363 11.6698 4.40524 14.4594 3.12399 17.7469C1.88437 20.9271 1.0406 24.5615 0.801048 29.8823C0.562517 35.2156 0.5 36.9208 0.5 50.5C0.5 64.0792 0.560433 65.7781 0.802064 71.1114C1.0469 76.4344 1.88961 80.0677 3.12501 83.2469C4.40315 86.5354 6.1115 89.325 8.89173 92.1042C11.6699 94.8854 14.4595 96.598 17.746 97.875C20.9273 99.1115 24.5617 99.9542 29.8836 100.198C35.217 100.441 36.9202 100.5 50.4984 100.5C64.0788 100.5 65.7778 100.441 71.1111 100.198C76.4342 99.9542 80.0717 99.1115 83.2529 97.875C86.5405 96.598 89.3259 94.8854 92.1041 92.1042C94.8854 89.325 96.5937 86.5355 97.875 83.2479C99.1041 80.0677 99.9479 76.4334 100.198 71.1125C100.437 65.7792 100.5 64.0792 100.5 50.5C100.5 36.9208 100.437 35.2167 100.198 29.8833C99.9479 24.5604 99.1041 20.9271 97.875 17.7479C96.5937 14.4594 94.8854 11.6698 92.1041 8.89061C89.3228 6.10935 86.5415 4.40103 83.2498 3.125C80.0623 1.88854 76.4268 1.04582 71.1039 0.802082C65.7705 0.559358 64.0725 0.5 50.4891 0.5H50.5047ZM46.0192 9.51044C47.3505 9.50835 48.8359 9.51044 50.5047 9.51044C63.8548 9.51044 65.4371 9.55835 70.7091 9.79792C75.5841 10.0209 78.23 10.8354 79.9925 11.5198C82.3259 12.426 83.9894 13.5094 85.7384 15.2594C87.4884 17.0094 88.5717 18.6761 89.4801 21.0094C90.1645 22.7698 90.9801 25.4156 91.202 30.2906C91.4416 35.5614 91.4937 37.1448 91.4937 50.4886C91.4937 63.8323 91.4416 65.4157 91.202 70.6865C90.979 75.5614 90.1645 78.2073 89.4801 79.9677C88.5739 82.3011 87.4884 83.9625 85.7384 85.7114C83.9884 87.4615 82.3269 88.5448 79.9925 89.451C78.2321 90.1386 75.5841 90.951 70.7091 91.174C65.4382 91.4135 63.8548 91.4656 50.5047 91.4656C37.1535 91.4656 35.5712 91.4135 30.3003 91.174C25.4253 90.949 22.7794 90.1344 21.0158 89.45C18.6825 88.5438 17.0158 87.4604 15.2658 85.7104C13.5158 83.9604 12.4324 82.2979 11.5241 79.9635C10.8397 78.2031 10.0241 75.5573 9.8022 70.6823C9.5626 65.4114 9.51467 63.8281 9.51467 50.476C9.51467 37.124 9.5626 35.5489 9.8022 30.2781C10.0251 25.4031 10.8397 22.7573 11.5241 20.9948C12.4303 18.6615 13.5158 16.9948 15.2658 15.2448C17.0158 13.4948 18.6825 12.4115 21.0158 11.5031C22.7784 10.8156 25.4253 10.0032 30.3003 9.77915C34.9128 9.57081 36.7004 9.50835 46.0192 9.49787L46.0192 9.51044ZM77.1946 17.8125C73.882 17.8125 71.1944 20.4969 71.1944 23.8104C71.1944 27.1229 73.882 29.8104 77.1946 29.8104C80.5071 29.8104 83.1946 27.1229 83.1946 23.8104C83.1946 20.4979 80.5071 17.8105 77.1945 17.8105L77.1946 17.8125ZM50.5047 24.8229C36.3243 24.8229 24.8274 36.3198 24.8274 50.5C24.8274 64.6802 36.3243 76.1719 50.5047 76.1719C64.685 76.1719 76.1779 64.6802 76.1779 50.5C76.1779 36.3198 64.684 24.8229 50.5037 24.8229H50.5047ZM50.5047 33.8333C59.7089 33.8333 67.1715 41.2948 67.1715 50.5C67.1715 59.7042 59.7089 67.1667 50.5047 67.1667C41.2994 67.1667 33.8379 59.7042 33.8379 50.5C33.8379 41.2948 41.2994 33.8333 50.5047 33.8333Z" fill="white"/>
</g>
<defs>
<clipPath id="clip0_247_46">
<rect width="100" height="100" fill="white" transform="translate(0.5 0.5)"/>
</clipPath>
</defs>
</svg>
