<svg width="24" height="25" viewBox="0 0 24 25" fill="none" xmlns="http://www.w3.org/2000/svg">
<path d="M13.6198 8.8824L15.5858 6.9154C15.3532 6.68288 15.1815 6.39658 15.086 6.08187C14.9905 5.76716 14.974 5.43374 15.0381 5.11116C15.1022 4.78858 15.2449 4.48678 15.4535 4.2325C15.6621 3.97822 15.9302 3.77931 16.234 3.65339C16.5378 3.52746 16.868 3.4784 17.1953 3.51056C17.5226 3.54272 17.837 3.6551 18.1105 3.83776C18.384 4.02041 18.6082 4.26769 18.7634 4.55771C18.9185 4.84772 18.9997 5.17151 18.9998 5.5004C19.3287 5.50017 19.6527 5.58109 19.9429 5.73599C20.2331 5.89089 20.4807 6.11499 20.6636 6.38844C20.8465 6.66188 20.9591 6.97622 20.9915 7.30359C21.0239 7.63097 20.975 7.96128 20.8492 8.26525C20.7234 8.56922 20.5245 8.83746 20.2702 9.0462C20.016 9.25495 19.7142 9.39775 19.3915 9.46195C19.0689 9.52615 18.7353 9.50977 18.4205 9.41426C18.1057 9.31875 17.8194 9.14706 17.5868 8.9144L15.7668 10.7354M7.49977 16.5004L8.49977 17.5004M5.90377 19.0964C8.63677 21.8304 11.8038 23.0964 12.9738 21.9254C14.1458 20.7534 12.8798 17.5874 10.1458 14.8544C7.41277 12.1204 4.24577 10.8544 3.07577 12.0254C1.90377 13.1974 3.16977 16.3634 5.90377 19.0964Z" stroke="#172E44" stroke-width="2" stroke-linecap="round" stroke-linejoin="round"/>
<path d="M12.9752 21.925C16.8802 18.019 17.8302 12.637 15.0962 9.90397C12.3632 7.16997 6.98117 8.11997 3.07617 12.025" stroke="#172E44" stroke-width="2" stroke-linecap="round" stroke-linejoin="round"/>
</svg>
