<svg width="100" height="100" viewBox="0 0 100 100" fill="none" xmlns="http://www.w3.org/2000/svg">
<path d="M64.3199 59.9073L62.4241 61.7727C62.4241 61.7727 57.9116 66.2033 45.5992 54.1055C33.2868 42.0078 37.7992 37.5772 37.7992 37.5772L38.9909 36.3995C41.9367 33.5089 42.2159 28.8641 39.645 25.4712L34.3951 18.5411C31.2118 14.3411 25.066 13.7852 21.4202 17.3676L14.8785 23.7912C13.0744 25.57 11.8661 27.8677 12.0119 30.4206C12.3869 36.9554 15.3785 51.009 32.0618 67.4056C49.7575 84.7905 66.3615 85.4823 73.149 84.8564C75.299 84.6587 77.1656 83.5799 78.6698 82.0975L84.5864 76.2834C88.5864 72.3592 87.4614 65.6268 82.3448 62.8803L74.3865 58.602C71.0282 56.8026 66.9449 57.3297 64.3199 59.9073Z" fill="white"/>
</svg>
