<svg width="16" height="17" viewBox="0 0 16 17" fill="none" xmlns="http://www.w3.org/2000/svg">
<path d="M5.4953 5.39334L1.24197 6.01001L1.16663 6.02534C1.05259 6.05562 0.948629 6.11562 0.865361 6.19921C0.782092 6.28281 0.722502 6.387 0.692674 6.50116C0.662847 6.61532 0.663851 6.73535 0.695584 6.84899C0.727318 6.96263 0.788644 7.06582 0.873299 7.14801L3.95463 10.1473L3.22797 14.384L3.2193 14.4573C3.21232 14.5753 3.23681 14.693 3.29027 14.7983C3.34372 14.9037 3.42422 14.993 3.52352 15.057C3.62282 15.121 3.73736 15.1575 3.8554 15.1627C3.97344 15.168 4.09074 15.1417 4.1953 15.0867L7.9993 13.0867L11.7946 15.0867L11.8613 15.1173C11.9713 15.1607 12.0909 15.174 12.2078 15.1558C12.3247 15.1377 12.4346 15.0888 12.5264 15.0142C12.6181 14.9395 12.6883 14.8418 12.7299 14.7311C12.7714 14.6204 12.7827 14.5006 12.7626 14.384L12.0353 10.1473L15.118 7.14734L15.17 7.09068C15.2442 6.99919 15.293 6.88964 15.3111 6.77321C15.3293 6.65677 15.3162 6.53759 15.2734 6.42783C15.2305 6.31807 15.1593 6.22163 15.067 6.14835C14.9747 6.07507 14.8646 6.02757 14.748 6.01068L10.4946 5.39334L8.5933 1.54001C8.53828 1.42837 8.45311 1.33435 8.34743 1.26861C8.24174 1.20287 8.11976 1.16803 7.9953 1.16803C7.87084 1.16803 7.74886 1.20287 7.64317 1.26861C7.53749 1.33435 7.45232 1.42837 7.3973 1.54001L5.4953 5.39334Z" fill="#172E44"/>
</svg>
