<svg width="100" height="100" viewBox="0 0 100 100" fill="none" xmlns="http://www.w3.org/2000/svg">
<path fill-rule="evenodd" clip-rule="evenodd" d="M6.87448 45.1337C33.718 33.3735 51.6178 25.6204 60.5741 21.8745C86.146 11.1792 91.4596 9.32128 94.9229 9.25993C95.6846 9.24644 97.3878 9.43627 98.4911 10.3364C99.4226 11.0965 99.6789 12.1233 99.8016 12.844C99.9242 13.5646 100.077 15.2063 99.9555 16.489C98.5698 31.1301 92.5737 66.6601 89.5232 83.0584C88.2324 89.9971 85.6909 92.3236 83.2303 92.5513C77.883 93.0461 73.8225 88.9978 68.6434 85.584C60.539 80.2419 55.9606 76.9165 48.0939 71.7037C39.0027 65.6794 44.8962 62.3684 50.0773 56.9572C51.4332 55.541 74.9936 33.992 75.4496 32.0371C75.5066 31.7926 75.5595 30.8813 75.0211 30.4001C74.4827 29.9189 73.6881 30.0834 73.1146 30.2143C72.3018 30.3998 59.355 39.0047 34.2743 56.0289C30.5994 58.5664 27.2708 59.8028 24.2885 59.738C21.0007 59.6666 14.6764 57.8687 9.97488 56.3319C4.2083 54.447 -0.374865 53.4505 0.0242259 50.2493C0.232097 48.582 2.51551 46.8768 6.87448 45.1337Z" fill="white"/>
</svg>
