<svg width="24" height="25" viewBox="0 0 24 25" fill="none" xmlns="http://www.w3.org/2000/svg">
<path d="M3.48633 9.46519C3.65433 9.48586 3.82566 9.49752 4.00033 9.50019C4.79033 9.50919 5.53933 9.32219 6.00033 9.00019C6.46133 8.68019 7.21033 8.49319 8.00033 8.50019C8.79033 8.49319 9.53933 8.68019 10.0003 9.00019C10.4613 9.32219 11.2103 9.50919 12.0003 9.50019C12.7903 9.50919 13.5393 9.32219 14.0003 9.00019C14.4613 8.68019 15.2103 8.49319 16.0003 8.50019C16.7903 8.49319 17.5393 8.68019 18.0003 9.00019C18.4613 9.32219 19.2103 9.50919 20.0003 9.50019C20.171 9.49886 20.3387 9.48752 20.5033 9.46619" stroke="#172E44" stroke-width="2" stroke-linecap="round" stroke-linejoin="round"/>
<path d="M3 6.5L4.721 16.829C4.79888 17.296 5.0399 17.7202 5.40118 18.0262C5.76245 18.3322 6.22056 18.5001 6.694 18.5H17.306C17.7794 18.5001 18.2375 18.3322 18.5988 18.0262C18.9601 17.7202 19.2011 17.296 19.279 16.829L21 6.5" stroke="#172E44" stroke-width="2" stroke-linecap="round" stroke-linejoin="round"/>
</svg>
