<svg width="100" height="100" viewBox="0 0 100 100" fill="none" xmlns="http://www.w3.org/2000/svg">
<path d="M99.9656 47.7485C99.4947 34.9771 94.0648 22.88 84.8089 13.9827C75.5529 5.08532 63.187 0.075747 50.293 1.36821e-05H50.0495C41.3663 -0.00637965 32.8315 2.22792 25.2839 6.48306C17.7366 10.7382 11.437 16.8675 7.00511 24.268C2.57321 31.6684 0.161704 40.0851 0.00785268 48.6895C-0.145995 57.2941 1.96312 65.7898 6.12767 73.3415L1.70556 99.5678C1.69836 99.6215 1.7028 99.6761 1.71861 99.7281C1.73438 99.7801 1.76119 99.8281 1.79718 99.8691C1.83316 99.9101 1.87752 99.9428 1.9273 99.9655C1.97707 99.9881 2.03116 99.9998 2.08591 100H2.16199L28.3345 94.2301C35.0969 97.4478 42.5024 99.1175 50.0038 99.1155C50.4807 99.1155 50.9573 99.1155 51.4338 99.1155C58.0325 98.9288 64.5286 97.4488 70.5467 94.7608C76.5652 92.0728 81.9868 88.2301 86.4989 83.4545C91.011 78.6788 94.5242 73.0648 96.8354 66.9361C99.1466 60.8078 100.21 54.2865 99.9656 47.7485ZM51.1853 90.4955C50.7898 90.4955 50.3943 90.4955 50.0038 90.4955C43.3742 90.5038 36.8394 88.9315 30.9513 85.9118L29.6125 85.2181L11.8632 89.3748L15.1392 71.5771L14.3786 70.3005C10.7454 64.1615 8.78849 57.1901 8.70054 50.0731C8.6126 42.9565 10.3966 35.9395 13.8769 29.714C17.3573 23.4883 22.4138 18.2686 28.5485 14.5689C34.6833 10.8692 41.6845 8.81712 48.863 8.61482C49.2619 8.61482 49.6624 8.61482 50.0647 8.61482C60.9027 8.64666 71.294 12.8969 79.0002 20.4499C86.7064 28.0029 91.1105 38.2541 91.2636 48.9945C91.4163 59.7351 87.3061 70.1051 79.8182 77.8708C72.3299 85.6365 62.0637 90.1758 51.231 90.5108L51.1853 90.4955Z" fill="white"/>
<path d="M32.6186 25.6337C32.0008 25.6457 31.3915 25.7804 30.8271 26.0299C30.2626 26.2794 29.7544 26.6386 29.3326 27.0863C28.1408 28.2976 24.809 31.2128 24.6163 37.3346C24.4236 43.4563 28.7392 49.513 29.3427 50.3623C29.9462 51.2116 37.5935 64.4356 50.1905 69.7983C57.5946 72.96 60.8401 73.5026 62.9445 73.5026C63.8119 73.5026 64.466 73.4123 65.1504 73.372C67.458 73.2313 72.6663 70.5876 73.802 67.7126C74.9381 64.8376 75.0141 62.3246 74.7148 61.822C74.4158 61.3193 73.5942 60.9573 72.3568 60.3139C71.1195 59.6706 65.0492 56.454 63.9081 56.0016C63.485 55.8063 63.0296 55.689 62.5641 55.655C62.2611 55.6706 61.9665 55.7593 61.7058 55.9136C61.4452 56.0676 61.2262 56.2826 61.0681 56.5393C60.0541 57.7909 57.7264 60.5099 56.9452 61.2943C56.7746 61.4889 56.5644 61.6459 56.3287 61.7553C56.0929 61.8643 55.8363 61.923 55.576 61.9276C55.0964 61.9066 54.6272 61.7813 54.2018 61.5606C50.5248 60.013 47.1723 57.7966 44.3179 55.0266C41.6509 52.4213 39.3881 49.4386 37.6036 46.1756C36.9141 44.909 37.6036 44.2556 38.2325 43.6626C38.8614 43.0693 39.5357 42.2503 40.1848 41.5413C40.7176 40.936 41.1615 40.2593 41.5036 39.531C41.6805 39.193 41.7699 38.8166 41.7635 38.436C41.7575 38.055 41.6559 37.682 41.4679 37.3496C41.1689 36.7163 38.9324 30.489 37.8827 27.991C37.0308 25.8549 36.0164 25.7845 35.1289 25.7192C34.3987 25.6689 33.562 25.6438 32.7252 25.6187H32.6186" fill="white"/>
</svg>
