<svg width="120" height="42" viewBox="0 0 120 42" fill="none" xmlns="http://www.w3.org/2000/svg">
<path d="M0 28.1H0.5C1.3 28.1 1.7 27.3 2.2 26.2L10.7 6.59999H13V7C13 7.6 13.1 8.39999 13.3 8.79999L20.4 26.3C21 27.8 21.2 28.2 22.2 28.2H22.4V28.5H16.6V28.2H18.9V28.1C18.5 27.9 18.2 27.2 18 26.7L16.3 22.6H4.4L2.8 26.4C2.7 26.6 2.6 26.9 2.6 27.1C2.6 27.8 3.1 28.3 4.1 28.3H5.6V28.6H0.0999985V28.1H0ZM16.1 22L11 9.39999C10.8 8.89999 10.8 8.5 10.8 8.2H10.5C10.5 8.4 10.4 8.79999 10.1 9.39999L4.6 22H16.1ZM7.9 1C9.2 2.9 10.4 3.7 11.5 3.7C12.9 3.7 14.1 2.6 15.3 1L15.7 1.29999C14.8 3.29999 13.2 4.79999 11.5 4.79999C10.1 4.79999 8.7 3.79999 7.3 1.29999L7.9 1Z" fill="#172E44"/>
<path d="M34.1 6.40019C36.1 6.40019 38.1 7.00019 39.6 8.30019C39.8 8.50019 39.9 8.70019 39.9 8.90019L40.1 8.80019C40 8.60019 40 8.20019 40 7.90019L39.9 5.7002H40.2L40.5 14.4002H40L39.9 11.6002C39.7 8.90019 36.8 6.80019 33.8 6.80019C28.8 6.80019 26.2 10.3002 26.2 16.9002C26.2 24.1002 29 28.0002 34.2 28.0002C37.1 28.0002 39.9 26.4002 40.9 23.9002L41.4 24.1002C40.2 27.1002 37.3 28.6002 34.1 28.6002C27.7 28.6002 23.5 24.1002 23.5 17.4002C23.5 10.8002 27.7 6.40019 34.1 6.40019Z" fill="#172E44"/>
<path d="M53.7992 6.40019C55.7992 6.40019 57.7992 7.00019 59.2992 8.30019C59.4992 8.50019 59.5992 8.70019 59.5992 8.90019L59.7992 8.80019C59.6992 8.60019 59.6992 8.20019 59.6992 7.90019L59.5992 5.7002H59.8992L60.1992 14.4002H59.6992L59.5992 11.6002C59.3992 8.90019 56.4992 6.80019 53.4992 6.80019C48.4992 6.80019 45.8992 10.3002 45.8992 16.9002C45.8992 24.1002 48.6992 28.0002 53.8992 28.0002C56.7992 28.0002 59.5992 26.4002 60.5992 23.9002L61.0992 24.1002C59.8992 27.1002 56.9992 28.6002 53.7992 28.6002C47.3992 28.6002 43.1992 24.1002 43.1992 17.4002C43.2992 10.8002 47.4992 6.40019 53.7992 6.40019Z" fill="#172E44"/>
<path d="M62.9004 17.5004C62.9004 10.8004 67.4004 6.40039 74.1004 6.40039C80.8004 6.40039 85.3004 10.8004 85.3004 17.5004C85.3004 24.2004 80.8004 28.6004 74.1004 28.6004C67.4004 28.7004 62.9004 24.2004 62.9004 17.5004ZM74.0004 7.0004C68.5004 7.0004 65.5004 10.5004 65.5004 17.0004C65.5004 17.9004 65.5004 18.7004 65.6004 19.5004L66.2004 18.2004C66.7004 17.1004 68.1004 16.1004 69.3004 16.1004C73.2004 16.1004 76.4004 17.7004 78.9004 17.7004C80.3004 17.7004 81.6004 17.0004 82.4004 15.1004C81.7004 9.80039 78.8004 7.0004 74.0004 7.0004ZM82.6004 18.1004C82.6004 17.5004 82.6004 16.9004 82.5004 16.3004L82.0004 17.6004C81.4004 19.0004 79.9004 19.8004 78.8004 19.8004C74.7004 19.8004 71.4004 17.9004 69.0004 17.9004C67.7004 17.9004 66.6004 18.5004 65.8004 20.4004C66.7004 25.4004 69.6004 28.1004 74.2004 28.1004C79.7004 28.1004 82.6004 24.6004 82.6004 18.1004Z" fill="#172E44"/>
<path d="M90.4996 6.59961H98.7996H103.9V6.89961H102.8C101.3 6.89961 101.2 7.29961 101.2 8.79961V26.2996C101.2 27.7996 101.4 28.1996 102.8 28.1996H103.9V28.4996H96.3996V28.1996H97.1996C98.6996 28.1996 98.7996 27.7996 98.7996 26.2996V7.19962H91.6996V14.5996C91.6996 22.6996 89.3996 27.7996 87.3996 29.4996L85.5996 27.4996C87.7996 25.5996 90.8996 21.3996 90.8996 15.2996V9.19962C90.8996 7.09962 90.6996 6.99962 88.4996 6.99962H87.7996V6.69962H90.4996V6.59961Z" fill="#172E44"/>
<path d="M104.9 28.0996H106C107.5 28.0996 107.6 27.8996 107.6 26.4996V8.49962C107.6 6.99962 107.4 6.89961 106 6.89961H104.9V6.59961H112.6V6.89961H111.5C110 6.89961 109.9 7.09962 109.9 8.49962V17.1996H112.2C116.8 17.1996 119.9 19.3996 119.9 22.7996C119.9 26.1996 116.8 28.3996 112.2 28.3996H104.9V28.0996ZM110 26.2996C110 26.9996 109.8 27.4996 109.5 27.7996V27.8996H111.7C115.4 27.8996 117.4 26.0996 117.4 22.7996C117.4 19.4996 115.4 17.6996 111.7 17.6996H110V26.2996Z" fill="#172E44"/>
<path d="M34.2008 40.4998C33.7008 40.4998 33.2008 40.3998 32.9008 40.1998C32.5008 39.9998 32.2008 39.6998 32.1008 39.2998C31.9008 38.8998 31.8008 38.4998 31.8008 37.8998C31.8008 37.0998 32.0008 36.4998 32.4008 35.9998C32.8008 35.4998 33.4008 35.2998 34.2008 35.1998C34.5008 35.1998 34.8008 35.0998 35.0008 35.0998C35.2008 35.0998 35.4008 35.0998 35.5008 34.9998C35.6008 34.9998 35.7008 34.9998 35.8008 34.8998C35.9008 34.8998 36.0008 34.7998 36.1008 34.7998V35.5998C36.0008 35.5998 35.9008 35.6998 35.8008 35.6998C35.7008 35.6998 35.5008 35.7998 35.2008 35.7998C35.0008 35.7998 34.7008 35.7998 34.4008 35.8998C33.8008 35.8998 33.3008 36.0998 33.0008 36.3998C32.7008 36.6998 32.5008 37.1998 32.5008 37.7998V37.9998V37.8998C32.6008 37.5998 32.7008 37.3998 32.9008 37.1998C33.1008 36.9998 33.3008 36.8998 33.6008 36.7998C33.9008 36.6998 34.2008 36.5998 34.5008 36.5998C34.9008 36.5998 35.2008 36.6998 35.5008 36.7998C35.8008 36.9998 36.0008 37.1998 36.2008 37.3998C36.4008 37.6998 36.5008 37.9998 36.5008 38.3998C36.5008 38.7998 36.4008 39.0998 36.2008 39.3998C36.0008 39.6998 35.8008 39.8998 35.4008 40.0998C35.0008 40.3998 34.6008 40.4998 34.2008 40.4998ZM34.2008 39.7998C34.5008 39.7998 34.7008 39.7998 34.9008 39.6998C35.1008 39.5998 35.2008 39.4998 35.4008 39.2998C35.5008 39.0998 35.6008 38.8998 35.6008 38.6998C35.6008 38.4998 35.5008 38.2998 35.4008 38.0998C35.3008 37.8998 35.1008 37.7998 34.9008 37.6998C34.7008 37.5998 34.5008 37.5998 34.2008 37.5998C33.8008 37.5998 33.5008 37.6998 33.3008 37.8998C33.1008 38.0998 32.8008 38.3998 32.7008 38.6998C32.8008 39.0998 33.0008 39.3998 33.2008 39.5998C33.4008 39.6998 33.8008 39.7998 34.2008 39.7998Z" fill="#172E44"/>
<path d="M38.9016 40.3L37.1016 36.5H38.1016L39.8016 40.3H38.9016ZM38.5016 41.6C38.3016 41.6 38.1016 41.6 37.9016 41.5C37.7016 41.4 37.5016 41.4 37.4016 41.3V40.6C37.6016 40.7 37.7016 40.8 37.9016 40.8C38.1016 40.9 38.2016 40.9 38.4016 40.9C38.6016 40.9 38.8016 40.9 38.9016 40.8C39.0016 40.7 39.2016 40.6 39.3016 40.4L41.1016 36.5H42.0016L40.0016 40.7C39.9016 40.9 39.8016 41.1 39.6016 41.3C39.5016 41.4 39.3016 41.5 39.1016 41.6C38.9016 41.6 38.7016 41.6 38.5016 41.6Z" fill="#172E44"/>
<path d="M42.8008 36.5H46.9008V37.2H42.8008V36.5ZM44.4008 36.8H45.3008V40.4H44.4008V36.8Z" fill="#172E44"/>
<path d="M48.1016 40.3994V36.4994H49.0016V39.8994L48.7016 39.7994L51.4016 36.3994H52.6016V40.2994H51.7016V36.8994L52.0016 36.9994L49.3016 40.3994H48.1016Z" fill="#172E44"/>
<path d="M54.2012 40.4V36.5H55.1012V39.6L54.8012 39.5L57.3012 36.5H58.3012L55.0012 40.4H54.2012ZM57.4012 40.4L56.2012 38.5L56.8012 37.9L58.4012 40.4H57.4012Z" fill="#172E44"/>
<path d="M64.2004 40.4998C63.7004 40.4998 63.3004 40.3998 63.0004 40.1998C62.6004 39.9998 62.4004 39.7998 62.2004 39.4998C62.0004 39.1998 61.9004 38.7998 61.9004 38.3998C61.9004 37.9998 62.0004 37.5998 62.2004 37.2998C62.4004 36.9998 62.7004 36.7998 63.0004 36.5998C63.4004 36.3998 63.8004 36.2998 64.2004 36.2998C64.6004 36.2998 65.1004 36.3998 65.4004 36.5998C65.8004 36.7998 66.0004 36.9998 66.2004 37.2998C66.4004 37.5998 66.5004 37.9998 66.5004 38.3998C66.5004 38.7998 66.4004 39.1998 66.2004 39.4998C66.0004 39.7998 65.7004 39.9998 65.4004 40.1998C65.1004 40.3998 64.7004 40.4998 64.2004 40.4998ZM64.2004 39.7998C64.5004 39.7998 64.8004 39.6998 65.0004 39.5998C65.2004 39.4998 65.4004 39.2998 65.5004 39.0998C65.6004 38.8998 65.7004 38.6998 65.7004 38.3998C65.7004 38.0998 65.6004 37.8998 65.5004 37.6998C65.4004 37.4998 65.2004 37.2998 65.0004 37.1998C64.8004 37.0998 64.5004 36.9998 64.2004 36.9998C63.9004 36.9998 63.6004 37.0998 63.4004 37.1998C63.2004 37.2998 63.0004 37.4998 62.9004 37.6998C62.8004 37.8998 62.7004 38.0998 62.7004 38.3998C62.7004 38.6998 62.8004 38.8998 62.9004 39.0998C63.0004 39.2998 63.2004 39.4998 63.4004 39.5998C63.6004 39.6998 63.9004 39.7998 64.2004 39.7998Z" fill="#172E44"/>
<path d="M67.5 36.5H71.6V37.2H67.5V36.5ZM69.1 36.8H70V40.4H69.1V36.8Z" fill="#172E44"/>
<path d="M74.8 40.4998C74.3 40.4998 73.9 40.3998 73.6 40.1998C73.2 39.9998 73 39.7998 72.8 39.4998C72.6 39.1998 72.5 38.7998 72.5 38.3998C72.5 37.9998 72.6 37.5998 72.8 37.2998C73 36.9998 73.3 36.7998 73.6 36.5998C73.9 36.3998 74.3 36.2998 74.8 36.2998C75.2 36.2998 75.6 36.3998 75.9 36.5998C76.2 36.7998 76.5 37.0998 76.6 37.3998C76.7 37.6998 76.9 38.1998 76.9 38.5998H73.2V37.8998H76.4L76 38.1998C76 37.8998 75.9 37.6998 75.8 37.4998C75.7 37.2998 75.5 37.1998 75.4 37.0998C75.2 36.9998 75 36.9998 74.8 36.9998C74.5 36.9998 74.3 37.0998 74.1 37.1998C73.9 37.2998 73.8 37.4998 73.6 37.5998C73.5 37.7998 73.4 37.9998 73.4 38.2998C73.4 38.5998 73.5 38.7998 73.6 38.9998C73.7 39.1998 73.9 39.3998 74.2 39.4998C74.4 39.5998 74.7 39.6998 75.1 39.6998C75.4 39.6998 75.7 39.6998 76 39.5998C76.3 39.4998 76.6 39.3998 76.8 39.1998V39.7998C76.6 39.9998 76.3 40.0998 75.9 40.1998C75.5 40.3998 75.2 40.4998 74.8 40.4998Z" fill="#172E44"/>
<path d="M78.9008 36.5H82.7008V40.4H81.8008V36.8L82.2008 37.2H79.3008L79.7008 36.9C79.7008 37.2 79.7008 37.5 79.8008 37.7C79.8008 38 79.8008 38.2 79.8008 38.4C79.8008 39.1 79.7008 39.7 79.5008 40C79.3008 40.3 79.0008 40.5 78.5008 40.5C78.4008 40.5 78.3008 40.5 78.1008 40.5C78.0008 40.5 77.9008 40.4 77.8008 40.4V39.7C77.9008 39.7 78.0008 39.8 78.0008 39.8C78.1008 39.8 78.2008 39.8 78.2008 39.8C78.5008 39.8 78.6008 39.7 78.7008 39.4C78.8008 39.2 78.9008 38.8 78.9008 38.3C78.9008 38.1 78.9008 37.8 78.9008 37.5C78.9008 37.2 78.9008 36.8 78.9008 36.5Z" fill="#172E44"/>
<path d="M84.3008 40.4V36.5H85.2008V40.1L84.9008 39.7H86.6008C86.8008 39.7 87.0008 39.6 87.2008 39.5C87.3008 39.4 87.4008 39.2 87.4008 39C87.4008 38.8 87.3008 38.6 87.2008 38.5C87.1008 38.4 86.9008 38.3 86.6008 38.3H85.0008V37.7H86.8008C87.1008 37.7 87.4008 37.8 87.6008 37.9C87.8008 38 88.0008 38.2 88.1008 38.4C88.2008 38.6 88.3008 38.8 88.3008 39.1C88.3008 39.4 88.2008 39.6 88.1008 39.8C88.0008 40 87.8008 40.2 87.6008 40.3C87.4008 40.4 87.1008 40.5 86.8008 40.5H84.3008V40.4Z" fill="#172E44"/>
</svg>
